[QUOTE]Format : MPEG-PS
File size : 484 MiB
Duration : 1h 38mn
Overall bit rate mode : Variable
Overall bit rate : 687 Kbps

Video
ID : 224 (0xE0)
Format : MPEG Video
Format version : Version 2
Format profile : Main@Main
Format settings, BVOP : Yes
Format settings, Matrix : Default
Format settings, GOP : M=3, N=15
Duration : 1h 38mn
Bit rate mode : Variable
Bit rate : 609 Kbps
Maximum bit rate : 600 Kbps
Width : 480 pixels
Height : 264 pixels
Display aspect ratio : 16:9
Frame rate : 23.976 fps
Color space : YUV
Chroma subsampling : 4:2:0
Bit depth : 8 bits
Scan type : Progressive
Compression mode : Lossy
Bits/(Pixel*Frame) : 0.200
Stream size : 429 MiB (89%)

Audio
ID : 192 (0xC0)
Format : MPEG Audio
Format version : Version 2
Format profile : Layer 3
Duration : 1h 38mn
Bit rate mode : Constant
Bit rate : 64.0 Kbps
Channel(s) : 2 channels
Sampling rate : 22.05 KHz
Compression mode : Lossy
Delay relative to video : 26ms
Stream size : 45.1 MiB (9%)[/QUOTE]

[IMG     http://t.imgbox.com/adjebrp3.jpg
[IMG]    http://t.imgbox.com/acuizRwR.jpg
[IMG]   http://t.imgbox.com/acuj8ILd.jpg
[IMG]        http://t.imgbox.com/acxgobdX.jpg
[IMG]       http://t.imgbox.com/act3Qp79.jpg
[IMG]    http://t.imgbox.com/actZCi4d.jpg
